<svg width="194" height="66" viewBox="0 0 194 66" fill="none" xmlns="http://www.w3.org/2000/svg">
<path d="M45 21L49.3301 28.5H40.6699L45 21Z" fill="#141414"/>
<path d="M77 21L81.3301 28.5H72.6699L77 21Z" fill="#141414"/>
<path d="M157 35L161.33 42.5H152.67L157 35Z" fill="#141414"/>
<path d="M149 35L153.33 42.5H144.67L149 35Z" fill="#141414"/>
<path d="M101 21L105.33 28.5H96.6699L101 21Z" fill="#141414"/>
<path d="M169 28L173.33 35.5H164.67L169 28Z" fill="#141414"/>
<path d="M177 28L181.33 35.5H172.67L177 28Z" fill="#141414"/>
<path d="M185 28L189.33 35.5H180.67L185 28Z" fill="#141414"/>
<path d="M129 14L133.33 21.5H124.67L129 14Z" fill="#141414"/>
<path d="M85 21L89.3301 28.5H80.6699L85 21Z" fill="#141414"/>
<path d="M93 21L97.3301 28.5H88.6699L93 21Z" fill="#141414"/>
<path d="M53 21L57.3301 28.5H48.6699L53 21Z" fill="#141414"/>
<path d="M61 21L65.3301 28.5H56.6699L61 21Z" fill="#141414"/>
<path d="M57 0L61.3301 7.5H52.6699L57 0Z" fill="#141414"/>
<path d="M89 0L93.3301 7.5H84.6699L89 0Z" fill="#141414"/>
<path d="M73 0L77.3301 7.5H68.6699L73 0Z" fill="#141414"/>
<path d="M33 42L37.3301 49.5H28.6699L33 42Z" fill="#141414"/>
<path d="M65 42L69.3301 49.5H60.6699L65 42Z" fill="#141414"/>
<path d="M121 42L125.33 49.5H116.67L121 42Z" fill="#141414"/>
<path d="M129 42L133.33 49.5H124.67L129 42Z" fill="#141414"/>
<path d="M137 42L141.33 49.5H132.67L137 42Z" fill="#141414"/>
<path d="M89 42L93.3301 49.5H84.6699L89 42Z" fill="#141414"/>
<path d="M157 49L161.33 56.5H152.67L157 49Z" fill="#141414"/>
<path d="M165 49L169.33 56.5H160.67L165 49Z" fill="#141414"/>
<path d="M173 49L177.33 56.5H168.67L173 49Z" fill="#141414"/>
<path d="M73 42L77.3301 49.5H68.6699L73 42Z" fill="#141414"/>
<path d="M81 42L85.3301 49.5H76.6699L81 42Z" fill="#141414"/>
<path d="M89 56L93.3301 63.5H84.6699L89 56Z" fill="#141414"/>
<path d="M25 42L29.3301 49.5H20.6699L25 42Z" fill="#141414"/>
<path d="M41 42L45.3301 49.5H36.6699L41 42Z" fill="#141414"/>
<path d="M49 42L53.3301 49.5H44.6699L49 42Z" fill="#141414"/>
<path d="M41 28L45.3301 35.5H36.6699L41 28Z" fill="#141414"/>
<path d="M73 28L77.3301 35.5H68.6699L73 28Z" fill="#141414"/>
<path d="M153 42L157.33 49.5H148.67L153 42Z" fill="#141414"/>
<path d="M97 28L101.33 35.5H92.6699L97 28Z" fill="#141414"/>
<path d="M165 35L169.33 42.5H160.67L165 35Z" fill="#141414"/>
<path d="M173 35L177.33 42.5H168.67L173 35Z" fill="#141414"/>
<path d="M181 35L185.33 42.5H176.67L181 35Z" fill="#141414"/>
<path d="M125 21L129.33 28.5H120.67L125 21Z" fill="#141414"/>
<path d="M81 28L85.3301 35.5H76.6699L81 28Z" fill="#141414"/>
<path d="M49 28L53.3301 35.5H44.6699L49 28Z" fill="#141414"/>
<path d="M53 7L57.3301 14.5H48.6699L53 7Z" fill="#141414"/>
<path d="M85 7L89.3301 14.5H80.6699L85 7Z" fill="#141414"/>
<path d="M165 21L169.33 28.5H160.67L165 21Z" fill="#141414"/>
<path d="M149 7L153.33 14.5H144.67L149 7Z" fill="#141414"/>
<path d="M153 14L157.33 21.5H148.67L153 14Z" fill="#141414"/>
<path d="M109 7L113.33 14.5H104.67L109 7Z" fill="#141414"/>
<path d="M177 14L181.33 21.5H172.67L177 14Z" fill="#141414"/>
<path d="M137 0L141.33 7.5H132.67L137 0Z" fill="#141414"/>
<path d="M121 0L125.33 7.5H116.67L121 0Z" fill="#141414"/>
<path d="M69 7L73.3301 14.5H64.6699L69 7Z" fill="#141414"/>
<path d="M73 14L77.3301 21.5H68.6699L73 14Z" fill="#141414"/>
<path d="M77 7L81.3301 14.5H72.6699L77 7Z" fill="#141414"/>
<path d="M29 49L33.3301 56.5H24.6699L29 49Z" fill="#141414"/>
<path d="M61 49L65.3301 56.5H56.6699L61 49Z" fill="#141414"/>
<path d="M117 49L121.33 56.5H112.67L117 49Z" fill="#141414"/>
<path d="M125 49L129.33 56.5H120.67L125 49Z" fill="#141414"/>
<path d="M133 49L137.33 56.5H128.67L133 49Z" fill="#141414"/>
<path d="M141 49L145.33 56.5H136.67L141 49Z" fill="#141414"/>
<path d="M69 49L73.3301 56.5H64.6699L69 49Z" fill="#141414"/>
<path d="M21 49L25.3301 56.5H16.6699L21 49Z" fill="#141414"/>
<path d="M13 49L17.3301 56.5H8.66987L13 49Z" fill="#141414"/>
<path d="M37 35L41.3301 42.5H32.6699L37 35Z" fill="#141414"/>
<path d="M69 35L73.3301 42.5H64.6699L69 35Z" fill="#141414"/>
<path d="M125 35L129.33 42.5H120.67L125 35Z" fill="#141414"/>
<path d="M133 35L137.33 42.5H128.67L133 35Z" fill="#141414"/>
<path d="M93 35L97.3301 42.5H88.6699L93 35Z" fill="#141414"/>
<path d="M161 42L165.33 49.5H156.67L161 42Z" fill="#141414"/>
<path d="M169 42L173.33 49.5H164.67L169 42Z" fill="#141414"/>
<path d="M177 42L181.33 49.5H172.67L177 42Z" fill="#141414"/>
<path d="M185 42L189.33 49.5H180.67L185 42Z" fill="#141414"/>
<path d="M121 28L125.33 35.5H116.67L121 28Z" fill="#141414"/>
<path d="M77 35L81.3301 42.5H72.6699L77 35Z" fill="#141414"/>
<path d="M85 49L89.3301 56.5H80.6699L85 49Z" fill="#141414"/>
<path d="M153 56L157.33 63.5H148.67L153 56Z" fill="#141414"/>
<path d="M177 56L181.33 63.5H172.67L177 56Z" fill="#141414"/>
<path d="M161 56L165.33 63.5H156.67L161 56Z" fill="#141414"/>
<path d="M185 56L189.33 63.5H180.67L185 56Z" fill="#141414"/>
<path d="M29 35L33.3301 42.5H24.6699L29 35Z" fill="#141414"/>
<path d="M21 35L25.3301 42.5H16.6699L21 35Z" fill="#141414"/>
<path d="M25 28L29.3301 35.5H20.6699L25 28Z" fill="#141414"/>
<path d="M17 28L21.3301 35.5H12.6699L17 28Z" fill="#141414"/>
<path d="M9 28L13.3301 35.5H4.66987L9 28Z" fill="#141414"/>
<path d="M13 21L17.3301 28.5H8.66987L13 21Z" fill="#141414"/>
<path d="M21 21L25.3301 28.5H16.6699L21 21Z" fill="#141414"/>
<path d="M29 21L33.3301 28.5H24.6699L29 21Z" fill="#141414"/>
<path d="M17 14L21.3301 21.5H12.6699L17 14Z" fill="#141414"/>
<path d="M9 14L13.3301 21.5H4.66987L9 14Z" fill="#141414"/>
<path d="M21 7L25.3301 14.5H16.6699L21 7Z" fill="#141414"/>
<path d="M5 35L9.33013 42.5H0.669873L5 35Z" fill="#141414"/>
<path d="M45 35L49.3301 42.5H40.6699L45 35Z" fill="#141414"/>
<path d="M53 35L57.3301 42.5H48.6699L53 35Z" fill="#141414"/>
<path d="M49 14L53.3301 21.5H44.6699L49 14Z" fill="#141414"/>
<path d="M81 14L85.3301 21.5H76.6699L81 14Z" fill="#141414"/>
<path d="M161 28L165.33 35.5H156.67L161 28Z" fill="#141414"/>
<path d="M105 14L109.33 21.5H100.67L105 14Z" fill="#141414"/>
<path d="M173 21L177.33 28.5H168.67L173 21Z" fill="#141414"/>
<path d="M181 21L185.33 28.5H176.67L181 21Z" fill="#141414"/>
<path d="M189 21L193.33 28.5H184.67L189 21Z" fill="#141414"/>
<path d="M181 7L185.33 14.5H176.67L181 7Z" fill="#141414"/>
<path d="M133 7L137.33 14.5H128.67L133 7Z" fill="#141414"/>
<path d="M117 7L121.33 14.5H112.67L117 7Z" fill="#141414"/>
<path d="M117 21L121.33 28.5H112.67L117 21Z" fill="#141414"/>
<path d="M89 14L93.3301 21.5H84.6699L89 14Z" fill="#141414"/>
<path d="M161 14L165.33 21.5H156.67L161 14Z" fill="#141414"/>
<path d="M165 7L169.33 14.5H160.67L165 7Z" fill="#141414"/>
<path d="M161 0L165.33 7.5H156.67L161 0Z" fill="#141414"/>
<path d="M97 14L101.33 21.5H92.6699L97 14Z" fill="#141414"/>
<path d="M169 14L173.33 21.5H164.67L169 14Z" fill="#141414"/>
<path d="M33 0L37.3301 7.5H28.6699L33 0Z" fill="#141414"/>
<path d="M45 7L49.3301 14.5H40.6699L45 7Z" fill="#141414"/>
<path d="M41 14L45.3301 21.5H36.6699L41 14Z" fill="#141414"/>
<path d="M37 7L41.3301 14.5H32.6699L37 7Z" fill="#141414"/>
<path d="M25 56L29.3301 63.5H20.6699L25 56Z" fill="#141414"/>
<path d="M57 56L61.3301 63.5H52.6699L57 56Z" fill="#141414"/>
<path d="M113 56L117.33 63.5H108.67L113 56Z" fill="#141414"/>
<path d="M121 56L125.33 63.5H116.67L121 56Z" fill="#141414"/>
<path d="M129 56L133.33 63.5H124.67L129 56Z" fill="#141414"/>
<path d="M137 56L141.33 63.5H132.67L137 56Z" fill="#141414"/>
<path d="M65 56L69.3301 63.5H60.6699L65 56Z" fill="#141414"/>
<path d="M73 56L77.3301 63.5H68.6699L73 56Z" fill="#141414"/>
<path d="M9 56L13.3301 63.5H4.66987L9 56Z" fill="#141414"/>
<path d="M33 56L37.3301 63.5H28.6699L33 56Z" fill="#141414"/>
<path d="M49 56L53.3301 63.5H44.6699L49 56Z" fill="#141414"/>
<path d="M45 49L49.3301 56.5H40.6699L45 49Z" fill="#141414"/>
</svg>
