<?xml version="1.0" encoding="utf-8"?>
<!-- Generator: Adobe Illustrator 27.1.1, SVG Export Plug-In . SVG Version: 6.00 Build 0)  -->
<svg version="1.1" xmlns="http://www.w3.org/2000/svg" xmlns:xlink="http://www.w3.org/1999/xlink" x="0px" y="0px"
	 viewBox="0 0 600 600" style="enable-background:new 0 0 600 600;" xml:space="preserve">
<style type="text/css">
	.st0{fill:#141414;}
</style>
<g id="Layer_1">
	<path class="st0" d="M284.86,188.9c0,5.59-4.53,10.13-10.13,10.13c-5.59,0-10.13-4.53-10.13-10.13c0-5.59,4.53-10.13,10.13-10.13
		C280.33,178.78,284.86,183.31,284.86,188.9z"/>
	<path class="st0" d="M309.62,188.9c0,5.59-4.54,10.13-10.13,10.13c-5.59,0-10.13-4.53-10.13-10.13c0-5.59,4.53-10.13,10.13-10.13
		C305.08,178.78,309.62,183.31,309.62,188.9z"/>
	<path class="st0" d="M334.38,188.9c0,5.59-4.54,10.13-10.13,10.13c-5.59,0-10.13-4.53-10.13-10.13c0-5.59,4.53-10.13,10.13-10.13
		C329.84,178.78,334.38,183.31,334.38,188.9z"/>
	<path class="st0" d="M359.13,188.9c0,5.59-4.53,10.13-10.13,10.13c-5.59,0-10.13-4.53-10.13-10.13c0-5.59,4.53-10.13,10.13-10.13
		C354.59,178.78,359.13,183.31,359.13,188.9z"/>
	<path class="st0" d="M383.88,188.9c0,5.59-4.53,10.13-10.13,10.13c-5.59,0-10.13-4.53-10.13-10.13c0-5.59,4.53-10.13,10.13-10.13
		C379.35,178.78,383.88,183.31,383.88,188.9z"/>
	<path class="st0" d="M408.64,188.9c0,5.59-4.53,10.13-10.13,10.13c-5.59,0-10.13-4.53-10.13-10.13c0-5.59,4.53-10.13,10.13-10.13
		C404.11,178.78,408.64,183.31,408.64,188.9z"/>
	<circle class="st0" cx="324.25" cy="238.41" r="10.13"/>
	<circle class="st0" cx="324.25" cy="238.41" r="10.13"/>
	<path class="st0" d="M359.13,238.41c0,5.59-4.53,10.13-10.13,10.13c-5.59,0-10.13-4.53-10.13-10.13c0-5.59,4.53-10.13,10.13-10.13
		C354.59,228.28,359.13,232.82,359.13,238.41z"/>
	<path class="st0" d="M383.88,238.41c0,5.59-4.53,10.13-10.13,10.13c-5.59,0-10.13-4.53-10.13-10.13c0-5.59,4.53-10.13,10.13-10.13
		C379.35,228.28,383.88,232.82,383.88,238.41z"/>
	<path class="st0" d="M210.59,188.9c0,5.59-4.53,10.13-10.13,10.13c-5.59,0-10.13-4.53-10.13-10.13c0-5.59,4.53-10.13,10.13-10.13
		C206.06,178.78,210.59,183.31,210.59,188.9z"/>
	<path class="st0" d="M210.59,213.66c0,5.59-4.53,10.13-10.13,10.13c-5.59,0-10.13-4.53-10.13-10.13s4.53-10.13,10.13-10.13
		C206.06,203.53,210.59,208.06,210.59,213.66z"/>
	<path class="st0" d="M235.35,188.9c0,5.59-4.53,10.13-10.13,10.13c-5.59,0-10.13-4.53-10.13-10.13c0-5.59,4.53-10.13,10.13-10.13
		C230.82,178.78,235.35,183.31,235.35,188.9z"/>
	<path class="st0" d="M260.11,188.9c0,5.59-4.53,10.13-10.13,10.13c-5.59,0-10.13-4.53-10.13-10.13c0-5.59,4.53-10.13,10.13-10.13
		C255.57,178.78,260.11,183.31,260.11,188.9z"/>
	<path class="st0" d="M210.59,238.41c0,5.59-4.53,10.13-10.13,10.13c-5.59,0-10.13-4.53-10.13-10.13c0-5.59,4.53-10.13,10.13-10.13
		C206.06,228.28,210.59,232.82,210.59,238.41z"/>
	<path class="st0" d="M235.35,238.41c0,5.59-4.53,10.13-10.13,10.13c-5.59,0-10.13-4.53-10.13-10.13c0-5.59,4.53-10.13,10.13-10.13
		C230.82,228.28,235.35,232.82,235.35,238.41z"/>
	<path class="st0" d="M260.11,238.41c0,5.59-4.53,10.13-10.13,10.13c-5.59,0-10.13-4.53-10.13-10.13c0-5.59,4.53-10.13,10.13-10.13
		C255.57,228.28,260.11,232.82,260.11,238.41z"/>
	<ellipse class="st0" cx="324.25" cy="337.44" rx="10.13" ry="10.13"/>
	<path class="st0" d="M334.38,362.19c0,5.6-4.54,10.13-10.13,10.13c-5.59,0-10.13-4.53-10.13-10.13c0-5.59,4.53-10.13,10.13-10.13
		C329.84,352.06,334.38,356.6,334.38,362.19z"/>
	<ellipse class="st0" cx="324.25" cy="386.95" rx="10.13" ry="10.13"/>
	<path class="st0" d="M334.38,411.71c0,5.58-4.54,10.12-10.13,10.12c-5.59,0-10.13-4.53-10.13-10.12c0-5.6,4.53-10.13,10.13-10.13
		C329.84,401.58,334.38,406.11,334.38,411.71z"/>
	<path class="st0" d="M284.86,411.71c0,5.58-4.53,10.12-10.13,10.12c-5.59,0-10.13-4.53-10.13-10.12c0-5.6,4.53-10.13,10.13-10.13
		C280.33,401.58,284.86,406.11,284.86,411.71z"/>
	<path class="st0" d="M284.86,386.95c0,5.6-4.53,10.13-10.13,10.13c-5.59,0-10.13-4.53-10.13-10.13c0-5.6,4.53-10.13,10.13-10.13
		C280.33,376.82,284.86,381.35,284.86,386.95z"/>
	<path class="st0" d="M284.86,362.19c0,5.6-4.53,10.13-10.13,10.13c-5.59,0-10.13-4.53-10.13-10.13c0-5.59,4.53-10.13,10.13-10.13
		C280.33,352.06,284.86,356.6,284.86,362.19z"/>
	<path class="st0" d="M284.86,337.44c0,5.59-4.53,10.13-10.13,10.13c-5.59,0-10.13-4.53-10.13-10.13s4.53-10.13,10.13-10.13
		C280.33,327.31,284.86,331.84,284.86,337.44z"/>
	<path class="st0" d="M284.86,312.68c0,5.59-4.53,10.13-10.13,10.13c-5.59,0-10.13-4.53-10.13-10.13c0-5.59,4.53-10.13,10.13-10.13
		C280.33,302.55,284.86,307.09,284.86,312.68z"/>
	<path class="st0" d="M284.86,287.93c0,5.59-4.53,10.13-10.13,10.13c-5.59,0-10.13-4.53-10.13-10.13c0-5.59,4.53-10.13,10.13-10.13
		C280.33,277.8,284.86,282.33,284.86,287.93z"/>
	<path class="st0" d="M284.86,263.17c0,5.59-4.53,10.13-10.13,10.13c-5.59,0-10.13-4.53-10.13-10.13c0-5.59,4.53-10.13,10.13-10.13
		C280.33,253.04,284.86,257.58,284.86,263.17z"/>
	<path class="st0" d="M284.86,238.41c0,5.59-4.53,10.13-10.13,10.13c-5.59,0-10.13-4.53-10.13-10.13c0-5.59,4.53-10.13,10.13-10.13
		C280.33,228.28,284.86,232.82,284.86,238.41z"/>
	<path class="st0" d="M309.62,411.71c0,5.58-4.54,10.12-10.13,10.12c-5.59,0-10.13-4.53-10.13-10.12c0-5.6,4.53-10.13,10.13-10.13
		C305.08,401.58,309.62,406.11,309.62,411.71z"/>
	<path class="st0" d="M359.13,337.44c0,5.59-4.53,10.13-10.13,10.13c-5.59,0-10.13-4.53-10.13-10.13s4.53-10.13,10.13-10.13
		C354.59,327.31,359.13,331.84,359.13,337.44z"/>
	<path class="st0" d="M383.88,337.44c0,5.59-4.53,10.13-10.13,10.13c-5.59,0-10.13-4.53-10.13-10.13s4.53-10.13,10.13-10.13
		C379.35,327.31,383.88,331.84,383.88,337.44z"/>
	<g>
		<path class="st0" d="M408.64,238.41c0,5.59-4.53,10.13-10.13,10.13c-5.59,0-10.13-4.53-10.13-10.13c0-5.59,4.53-10.13,10.13-10.13
			C404.11,228.28,408.64,232.82,408.64,238.41z"/>
		<path class="st0" d="M408.64,263.17c0,5.59-4.53,10.13-10.13,10.13c-5.59,0-10.13-4.53-10.13-10.13c0-5.59,4.53-10.13,10.13-10.13
			C404.11,253.04,408.64,257.58,408.64,263.17z"/>
		<path class="st0" d="M408.64,287.93c0,5.59-4.53,10.13-10.13,10.13c-5.59,0-10.13-4.53-10.13-10.13c0-5.59,4.53-10.13,10.13-10.13
			C404.11,277.8,408.64,282.33,408.64,287.93z"/>
		<path class="st0" d="M408.64,312.68c0,5.59-4.53,10.13-10.13,10.13c-5.59,0-10.13-4.53-10.13-10.13c0-5.59,4.53-10.13,10.13-10.13
			C404.11,302.55,408.64,307.09,408.64,312.68z"/>
		<path class="st0" d="M408.64,337.44c0,5.59-4.53,10.13-10.13,10.13c-5.59,0-10.13-4.53-10.13-10.13s4.53-10.13,10.13-10.13
			C404.11,327.31,408.64,331.84,408.64,337.44z"/>
	</g>
</g>
<g id="Layer_2">
</g>
</svg>
